<svg xmlns="http://www.w3.org/2000/svg" width="820" height="335" viewBox="0 0 820 335"><rect width="100%" height="100%" rx="18" fill="#f7f4ed"/><text x="20" y="38" font-size="22" font-weight="600" fill="#26352f">Guardrail pass rate</text><text x="20" y="87" font-size="15" fill="#26352f">oss · route</text><rect x="250" y="70" width="500" height="24" rx="7" fill="#e8eee9"/><rect x="250" y="70" width="402.8" height="24" rx="7" fill="#4f8f7b"/><text x="760" y="87" font-size="14" fill="#26352f">80.6%</text><text x="20" y="135" font-size="15" fill="#26352f">oss · tool policy</text><rect x="250" y="118" width="500" height="24" rx="7" fill="#e8eee9"/><rect x="250" y="118" width="298.6" height="24" rx="7" fill="#bd6b6b"/><text x="760" y="135" font-size="14" fill="#26352f">59.7%</text><text x="20" y="183" font-size="15" fill="#26352f">oss · citation policy</text><rect x="250" y="166" width="500" height="24" rx="7" fill="#e8eee9"/><rect x="250" y="166" width="409.7" height="24" rx="7" fill="#4f8f7b"/><text x="760" y="183" font-size="14" fill="#26352f">81.9%</text><text x="20" y="231" font-size="15" fill="#26352f">oss · citation integrity</text><rect x="250" y="214" width="500" height="24" rx="7" fill="#e8eee9"/><rect x="250" y="214" width="479.2" height="24" rx="7" fill="#4f8f7b"/><text x="760" y="231" font-size="14" fill="#26352f">95.8%</text><text x="20" y="279" font-size="15" fill="#26352f">oss · query fidelity</text><rect x="250" y="262" width="500" height="24" rx="7" fill="#e8eee9"/><rect x="250" y="262" width="500.0" height="24" rx="7" fill="#4f8f7b"/><text x="760" y="279" font-size="14" fill="#26352f">100.0%</text></svg>