<svg xmlns="http://www.w3.org/2000/svg" width="820" height="383" viewBox="0 0 820 383"><rect width="100%" height="100%" rx="18" fill="#f7f4ed"/><text x="20" y="38" font-size="22" font-weight="600" fill="#26352f">Structural pass rate by axis</text><text x="20" y="87" font-size="15" fill="#26352f">frontier · hallucination</text><rect x="250" y="70" width="500" height="24" rx="7" fill="#e8eee9"/><rect x="250" y="70" width="403.8" height="24" rx="7" fill="#4f8f7b"/><text x="760" y="87" font-size="14" fill="#26352f">80.8%</text><text x="20" y="135" font-size="15" fill="#26352f">frontier · bias harm</text><rect x="250" y="118" width="500" height="24" rx="7" fill="#e8eee9"/><rect x="250" y="118" width="461.5" height="24" rx="7" fill="#4f8f7b"/><text x="760" y="135" font-size="14" fill="#26352f">92.3%</text><text x="20" y="183" font-size="15" fill="#26352f">frontier · content safety</text><rect x="250" y="166" width="500" height="24" rx="7" fill="#e8eee9"/><rect x="250" y="166" width="425.0" height="24" rx="7" fill="#4f8f7b"/><text x="760" y="183" font-size="14" fill="#26352f">85.0%</text><text x="20" y="231" font-size="15" fill="#26352f">oss · hallucination</text><rect x="250" y="214" width="500" height="24" rx="7" fill="#e8eee9"/><rect x="250" y="214" width="365.4" height="24" rx="7" fill="#d69a5b"/><text x="760" y="231" font-size="14" fill="#26352f">73.1%</text><text x="20" y="279" font-size="15" fill="#26352f">oss · bias harm</text><rect x="250" y="262" width="500" height="24" rx="7" fill="#e8eee9"/><rect x="250" y="262" width="346.2" height="24" rx="7" fill="#d69a5b"/><text x="760" y="279" font-size="14" fill="#26352f">69.2%</text><text x="20" y="327" font-size="15" fill="#26352f">oss · content safety</text><rect x="250" y="310" width="500" height="24" rx="7" fill="#e8eee9"/><rect x="250" y="310" width="400.0" height="24" rx="7" fill="#4f8f7b"/><text x="760" y="327" font-size="14" fill="#26352f">80.0%</text></svg>