<svg xmlns="http://www.w3.org/2000/svg" width="820" height="383" viewBox="0 0 820 383"><rect width="100%" height="100%" rx="18" fill="#f7f4ed"/><text x="20" y="38" font-size="22" font-weight="600" fill="#26352f">Prompt change: structural rates</text><text x="20" y="87" font-size="15" fill="#26352f">baseline · hallucination</text><rect x="250" y="70" width="500" height="24" rx="7" fill="#e8eee9"/><rect x="250" y="70" width="192.3" height="24" rx="7" fill="#bd6b6b"/><text x="760" y="87" font-size="14" fill="#26352f">38.5%</text><text x="20" y="135" font-size="15" fill="#26352f">prompt v2 · hallucination</text><rect x="250" y="118" width="500" height="24" rx="7" fill="#e8eee9"/><rect x="250" y="118" width="288.5" height="24" rx="7" fill="#bd6b6b"/><text x="760" y="135" font-size="14" fill="#26352f">57.7%</text><text x="20" y="183" font-size="15" fill="#26352f">baseline · bias harm</text><rect x="250" y="166" width="500" height="24" rx="7" fill="#e8eee9"/><rect x="250" y="166" width="230.8" height="24" rx="7" fill="#bd6b6b"/><text x="760" y="183" font-size="14" fill="#26352f">46.2%</text><text x="20" y="231" font-size="15" fill="#26352f">prompt v2 · bias harm</text><rect x="250" y="214" width="500" height="24" rx="7" fill="#e8eee9"/><rect x="250" y="214" width="403.8" height="24" rx="7" fill="#4f8f7b"/><text x="760" y="231" font-size="14" fill="#26352f">80.8%</text><text x="20" y="279" font-size="15" fill="#26352f">baseline · content safety</text><rect x="250" y="262" width="500" height="24" rx="7" fill="#e8eee9"/><rect x="250" y="262" width="400.0" height="24" rx="7" fill="#4f8f7b"/><text x="760" y="279" font-size="14" fill="#26352f">80.0%</text><text x="20" y="327" font-size="15" fill="#26352f">prompt v2 · content safety</text><rect x="250" y="310" width="500" height="24" rx="7" fill="#e8eee9"/><rect x="250" y="310" width="425.0" height="24" rx="7" fill="#4f8f7b"/><text x="760" y="327" font-size="14" fill="#26352f">85.0%</text></svg>